<svg width="81" height="78" viewBox="0 0 81 78" fill="none" xmlns="http://www.w3.org/2000/svg">
<path d="M39.1555 0.820312C56.9372 0.820427 71.345 15.166 71.345 32.8535C71.3449 50.541 56.9372 64.8866 39.1555 64.8867C21.3738 64.8867 6.96514 50.5411 6.96509 32.8535C6.96509 15.1659 21.3737 0.820312 39.1555 0.820312Z" fill="white" stroke="black" stroke-width="1.64093"/>
<path d="M38.9458 4.03223C54.6092 4.03228 67.3304 16.9463 67.3306 32.9053C67.3306 48.8644 54.6093 61.7792 38.9458 61.7793C23.2823 61.7793 10.561 48.8645 10.561 32.9053C10.5613 16.9463 23.2824 4.03223 38.9458 4.03223Z" fill="white" stroke="#2449C2" stroke-width="1.64093"/>
<line x1="-0.00330237" y1="34.7577" x2="78.3771" y2="34.4422" stroke="white" stroke-width="1.64093"/>
<rect x="24.7537" y="17.2666" width="4.38704" height="31.1879" fill="black"/>
<rect x="36.8513" y="17.2666" width="4.38704" height="31.1879" fill="#2449C2"/>
<rect x="48.949" y="17.2666" width="4.38704" height="31.1879" fill="black"/>
<rect x="26.9604" y="31.0918" width="14.3044" height="3.56281" fill="black"/>
<path d="M39.2866 37.5898L48.883 17.247L50.8349 18.1677L41.2385 38.5106L39.2866 37.5898Z" fill="black"/>
<rect x="36.8513" y="34.6553" width="4.38704" height="3.85528" fill="black"/>
<rect x="14.2371" y="67.3242" width="66.5665" height="10.6762" fill="white"/>
<mask id="path-11-outside-1_28_68" maskUnits="userSpaceOnUse" x="18.4814" y="68.9883" width="47" height="7" fill="black">
<rect fill="white" x="18.4814" y="68.9883" width="47" height="7"/>
<path d="M19.1314 74.9883V69.6211H19.7813V72.0112H22.6431V69.6211H23.293V74.9883H22.6431V72.5877H19.7813V74.9883H19.1314ZM25.2441 69.6211V74.9883H24.5942V69.6211H25.2441ZM26.5473 74.9883V69.6211H28.3608C28.7801 69.6211 29.1243 69.6927 29.3933 69.836C29.6624 69.9775 29.8616 70.1723 29.9909 70.4204C30.1201 70.6685 30.1848 70.9507 30.1848 71.2669C30.1848 71.5831 30.1201 71.8635 29.9909 72.1081C29.8616 72.3527 29.6633 72.5449 29.396 72.6847C29.1286 72.8227 28.7871 72.8917 28.3713 72.8917H26.9037V72.3047H28.3503C28.6368 72.3047 28.8675 72.2628 29.0422 72.1789C29.2186 72.095 29.3462 71.9762 29.4248 71.8225C29.5052 71.667 29.5453 71.4818 29.5453 71.2669C29.5453 71.052 29.5052 70.8642 29.4248 70.7035C29.3444 70.5427 29.216 70.4187 29.0395 70.3313C28.8631 70.2422 28.6298 70.1977 28.3398 70.1977H27.1972V74.9883H26.5473ZM29.0736 72.5772L30.3944 74.9883H29.6397L28.3398 72.5772H29.0736ZM31.2678 74.9883V69.6211H34.507V70.1977H31.9177V72.0112H34.3392V72.5877H31.9177V74.4117H34.5489V74.9883H31.2678Z"/>
<path d="M35.6784 69.6211H36.4541L38.2781 74.0763H38.341L40.165 69.6211H40.9407V74.9883H40.3327V70.9105H40.2803L38.6031 74.9883H38.0161L36.3388 70.9105H36.2864V74.9883H35.6784V69.6211ZM42.464 74.9883H41.7826L43.7534 69.6211H44.4243L46.3951 74.9883H45.7137L44.1098 70.4702H44.0679L42.464 74.9883ZM42.7156 72.8917H45.4621V73.4683H42.7156V72.8917ZM50.1662 70.9629C50.1348 70.6973 50.0072 70.4912 49.7836 70.3444C49.56 70.1977 49.2857 70.1243 48.9607 70.1243C48.7231 70.1243 48.5152 70.1627 48.337 70.2396C48.1605 70.3165 48.0225 70.4222 47.9229 70.5567C47.8251 70.6912 47.7762 70.8441 47.7762 71.0153C47.7762 71.1586 47.8102 71.2818 47.8784 71.3848C47.9483 71.4862 48.0374 71.5709 48.1457 71.639C48.254 71.7054 48.3676 71.7605 48.4864 71.8041C48.6052 71.8461 48.7144 71.8801 48.814 71.9064L49.3591 72.0531C49.4988 72.0898 49.6543 72.1405 49.8255 72.2051C49.9985 72.2698 50.1636 72.358 50.3209 72.4698C50.4798 72.5799 50.6109 72.7214 50.714 72.8944C50.817 73.0673 50.8686 73.2796 50.8686 73.5312C50.8686 73.8212 50.7926 74.0833 50.6406 74.3174C50.4903 74.5515 50.2702 74.7376 49.9802 74.8756C49.6919 75.0136 49.3416 75.0826 48.9293 75.0826C48.5449 75.0826 48.2121 75.0206 47.9308 74.8966C47.6512 74.7725 47.4311 74.5995 47.2704 74.3777C47.1114 74.1558 47.0214 73.8981 47.0004 73.6046H47.6713C47.6888 73.8072 47.7569 73.9749 47.8757 74.1077C47.9963 74.2388 48.1483 74.3366 48.3317 74.4012C48.5169 74.4641 48.7161 74.4956 48.9293 74.4956C49.1774 74.4956 49.4001 74.4554 49.5975 74.375C49.795 74.2929 49.9513 74.1794 50.0666 74.0344C50.182 73.8876 50.2396 73.7164 50.2396 73.5207C50.2396 73.3425 50.1898 73.1975 50.0902 73.0857C49.9906 72.9738 49.8596 72.883 49.6971 72.8131C49.5346 72.7432 49.3591 72.6821 49.1704 72.6297L48.51 72.441C48.0906 72.3204 47.7587 72.1483 47.5141 71.9247C47.2695 71.7011 47.1472 71.4084 47.1472 71.0468C47.1472 70.7463 47.2284 70.4842 47.3909 70.2606C47.5551 70.0352 47.7753 69.8605 48.0513 69.7364C48.3291 69.6106 48.6392 69.5477 48.9817 69.5477C49.3276 69.5477 49.6351 69.6098 49.9042 69.7338C50.1732 69.8561 50.3864 70.0238 50.5436 70.237C50.7026 70.4501 50.7865 70.6921 50.7952 70.9629H50.1662ZM51.6436 70.1977V69.6211H55.669V70.1977H53.9813V74.9883H53.3314V70.1977H51.6436ZM56.6721 74.9883V69.6211H59.9113V70.1977H57.322V72.0112H59.7435V72.5877H57.322V74.4117H59.9532V74.9883H56.6721ZM61.0827 74.9883V69.6211H62.8962C63.3155 69.6211 63.6597 69.6927 63.9288 69.836C64.1978 69.9775 64.397 70.1723 64.5263 70.4204C64.6556 70.6685 64.7202 70.9507 64.7202 71.2669C64.7202 71.5831 64.6556 71.8635 64.5263 72.1081C64.397 72.3527 64.1987 72.5449 63.9314 72.6847C63.6641 72.8227 63.3225 72.8917 62.9067 72.8917H61.4391V72.3047H62.8857C63.1723 72.3047 63.4029 72.2628 63.5776 72.1789C63.7541 72.095 63.8816 71.9762 63.9602 71.8225C64.0406 71.667 64.0808 71.4818 64.0808 71.2669C64.0808 71.052 64.0406 70.8642 63.9602 70.7035C63.8799 70.5427 63.7514 70.4187 63.575 70.3313C63.3985 70.2422 63.1653 70.1977 62.8753 70.1977H61.7326V74.9883H61.0827ZM63.6091 72.5772L64.9299 74.9883H64.1751L62.8753 72.5772H63.6091Z"/>
</mask>
<path d="M19.1314 74.9883V69.6211H19.7813V72.0112H22.6431V69.6211H23.293V74.9883H22.6431V72.5877H19.7813V74.9883H19.1314ZM25.2441 69.6211V74.9883H24.5942V69.6211H25.2441ZM26.5473 74.9883V69.6211H28.3608C28.7801 69.6211 29.1243 69.6927 29.3933 69.836C29.6624 69.9775 29.8616 70.1723 29.9909 70.4204C30.1201 70.6685 30.1848 70.9507 30.1848 71.2669C30.1848 71.5831 30.1201 71.8635 29.9909 72.1081C29.8616 72.3527 29.6633 72.5449 29.396 72.6847C29.1286 72.8227 28.7871 72.8917 28.3713 72.8917H26.9037V72.3047H28.3503C28.6368 72.3047 28.8675 72.2628 29.0422 72.1789C29.2186 72.095 29.3462 71.9762 29.4248 71.8225C29.5052 71.667 29.5453 71.4818 29.5453 71.2669C29.5453 71.052 29.5052 70.8642 29.4248 70.7035C29.3444 70.5427 29.216 70.4187 29.0395 70.3313C28.8631 70.2422 28.6298 70.1977 28.3398 70.1977H27.1972V74.9883H26.5473ZM29.0736 72.5772L30.3944 74.9883H29.6397L28.3398 72.5772H29.0736ZM31.2678 74.9883V69.6211H34.507V70.1977H31.9177V72.0112H34.3392V72.5877H31.9177V74.4117H34.5489V74.9883H31.2678Z" fill="black"/>
<path d="M35.6784 69.6211H36.4541L38.2781 74.0763H38.341L40.165 69.6211H40.9407V74.9883H40.3327V70.9105H40.2803L38.6031 74.9883H38.0161L36.3388 70.9105H36.2864V74.9883H35.6784V69.6211ZM42.464 74.9883H41.7826L43.7534 69.6211H44.4243L46.3951 74.9883H45.7137L44.1098 70.4702H44.0679L42.464 74.9883ZM42.7156 72.8917H45.4621V73.4683H42.7156V72.8917ZM50.1662 70.9629C50.1348 70.6973 50.0072 70.4912 49.7836 70.3444C49.56 70.1977 49.2857 70.1243 48.9607 70.1243C48.7231 70.1243 48.5152 70.1627 48.337 70.2396C48.1605 70.3165 48.0225 70.4222 47.9229 70.5567C47.8251 70.6912 47.7762 70.8441 47.7762 71.0153C47.7762 71.1586 47.8102 71.2818 47.8784 71.3848C47.9483 71.4862 48.0374 71.5709 48.1457 71.639C48.254 71.7054 48.3676 71.7605 48.4864 71.8041C48.6052 71.8461 48.7144 71.8801 48.814 71.9064L49.3591 72.0531C49.4988 72.0898 49.6543 72.1405 49.8255 72.2051C49.9985 72.2698 50.1636 72.358 50.3209 72.4698C50.4798 72.5799 50.6109 72.7214 50.714 72.8944C50.817 73.0673 50.8686 73.2796 50.8686 73.5312C50.8686 73.8212 50.7926 74.0833 50.6406 74.3174C50.4903 74.5515 50.2702 74.7376 49.9802 74.8756C49.6919 75.0136 49.3416 75.0826 48.9293 75.0826C48.5449 75.0826 48.2121 75.0206 47.9308 74.8966C47.6512 74.7725 47.4311 74.5995 47.2704 74.3777C47.1114 74.1558 47.0214 73.8981 47.0004 73.6046H47.6713C47.6888 73.8072 47.7569 73.9749 47.8757 74.1077C47.9963 74.2388 48.1483 74.3366 48.3317 74.4012C48.5169 74.4641 48.7161 74.4956 48.9293 74.4956C49.1774 74.4956 49.4001 74.4554 49.5975 74.375C49.795 74.2929 49.9513 74.1794 50.0666 74.0344C50.182 73.8876 50.2396 73.7164 50.2396 73.5207C50.2396 73.3425 50.1898 73.1975 50.0902 73.0857C49.9906 72.9738 49.8596 72.883 49.6971 72.8131C49.5346 72.7432 49.3591 72.6821 49.1704 72.6297L48.51 72.441C48.0906 72.3204 47.7587 72.1483 47.5141 71.9247C47.2695 71.7011 47.1472 71.4084 47.1472 71.0468C47.1472 70.7463 47.2284 70.4842 47.3909 70.2606C47.5551 70.0352 47.7753 69.8605 48.0513 69.7364C48.3291 69.6106 48.6392 69.5477 48.9817 69.5477C49.3276 69.5477 49.6351 69.6098 49.9042 69.7338C50.1732 69.8561 50.3864 70.0238 50.5436 70.237C50.7026 70.4501 50.7865 70.6921 50.7952 70.9629H50.1662ZM51.6436 70.1977V69.6211H55.669V70.1977H53.9813V74.9883H53.3314V70.1977H51.6436ZM56.6721 74.9883V69.6211H59.9113V70.1977H57.322V72.0112H59.7435V72.5877H57.322V74.4117H59.9532V74.9883H56.6721ZM61.0827 74.9883V69.6211H62.8962C63.3155 69.6211 63.6597 69.6927 63.9288 69.836C64.1978 69.9775 64.397 70.1723 64.5263 70.4204C64.6556 70.6685 64.7202 70.9507 64.7202 71.2669C64.7202 71.5831 64.6556 71.8635 64.5263 72.1081C64.397 72.3527 64.1987 72.5449 63.9314 72.6847C63.6641 72.8227 63.3225 72.8917 62.9067 72.8917H61.4391V72.3047H62.8857C63.1723 72.3047 63.4029 72.2628 63.5776 72.1789C63.7541 72.095 63.8816 71.9762 63.9602 71.8225C64.0406 71.667 64.0808 71.4818 64.0808 71.2669C64.0808 71.052 64.0406 70.8642 63.9602 70.7035C63.8799 70.5427 63.7514 70.4187 63.575 70.3313C63.3985 70.2422 63.1653 70.1977 62.8753 70.1977H61.7326V74.9883H61.0827ZM63.6091 72.5772L64.9299 74.9883H64.1751L62.8753 72.5772H63.6091Z" fill="#2449C2"/>
<path d="M19.1314 74.9883H18.9838V75.1359H19.1314V74.9883ZM19.1314 69.6211V69.4735H18.9838V69.6211H19.1314ZM19.7813 69.6211H19.9289V69.4735H19.7813V69.6211ZM19.7813 72.0112H19.6337V72.1588H19.7813V72.0112ZM22.6431 72.0112V72.1588H22.7907V72.0112H22.6431ZM22.6431 69.6211V69.4735H22.4955V69.6211H22.6431ZM23.293 69.6211H23.4406V69.4735H23.293V69.6211ZM23.293 74.9883V75.1359H23.4406V74.9883H23.293ZM22.6431 74.9883H22.4955V75.1359H22.6431V74.9883ZM22.6431 72.5877H22.7907V72.4401H22.6431V72.5877ZM19.7813 72.5877V72.4401H19.6337V72.5877H19.7813ZM19.7813 74.9883V75.1359H19.9289V74.9883H19.7813ZM19.1314 74.9883H19.279V69.6211H19.1314H18.9838V74.9883H19.1314ZM19.1314 69.6211V69.7687H19.7813V69.6211V69.4735H19.1314V69.6211ZM19.7813 69.6211H19.6337V72.0112H19.7813H19.9289V69.6211H19.7813ZM19.7813 72.0112V72.1588H22.6431V72.0112V71.8636H19.7813V72.0112ZM22.6431 72.0112H22.7907V69.6211H22.6431H22.4955V72.0112H22.6431ZM22.6431 69.6211V69.7687H23.293V69.6211V69.4735H22.6431V69.6211ZM23.293 69.6211H23.1454V74.9883H23.293H23.4406V69.6211H23.293ZM23.293 74.9883V74.8407H22.6431V74.9883V75.1359H23.293V74.9883ZM22.6431 74.9883H22.7907V72.5877H22.6431H22.4955V74.9883H22.6431ZM22.6431 72.5877V72.4401H19.7813V72.5877V72.7353H22.6431V72.5877ZM19.7813 72.5877H19.6337V74.9883H19.7813H19.9289V72.5877H19.7813ZM19.7813 74.9883V74.8407H19.1314V74.9883V75.1359H19.7813V74.9883ZM25.2441 69.6211H25.3917V69.4735H25.2441V69.6211ZM25.2441 74.9883V75.1359H25.3917V74.9883H25.2441ZM24.5942 74.9883H24.4466V75.1359H24.5942V74.9883ZM24.5942 69.6211V69.4735H24.4466V69.6211H24.5942ZM25.2441 69.6211H25.0965V74.9883H25.2441H25.3917V69.6211H25.2441ZM25.2441 74.9883V74.8407H24.5942V74.9883V75.1359H25.2441V74.9883ZM24.5942 74.9883H24.7418V69.6211H24.5942H24.4466V74.9883H24.5942ZM24.5942 69.6211V69.7687H25.2441V69.6211V69.4735H24.5942V69.6211ZM26.5473 74.9883H26.3997V75.1359H26.5473V74.9883ZM26.5473 69.6211V69.4735H26.3997V69.6211H26.5473ZM29.3933 69.836L29.324 69.9663L29.3246 69.9666L29.3933 69.836ZM29.9909 70.4204L29.86 70.4886L29.86 70.4886L29.9909 70.4204ZM29.9909 72.1081L29.8604 72.0392L29.8604 72.0392L29.9909 72.1081ZM29.396 72.6847L29.4637 72.8158L29.4643 72.8155L29.396 72.6847ZM26.9037 72.8917H26.7561V73.0393H26.9037V72.8917ZM26.9037 72.3047V72.1571H26.7561V72.3047H26.9037ZM29.0422 72.1789L28.9788 72.0456L28.9783 72.0458L29.0422 72.1789ZM29.4248 71.8225L29.2937 71.7547L29.2934 71.7553L29.4248 71.8225ZM29.0395 70.3313L28.973 70.4631L28.9741 70.4636L29.0395 70.3313ZM27.1972 70.1977V70.0501H27.0496V70.1977H27.1972ZM27.1972 74.9883V75.1359H27.3448V74.9883H27.1972ZM29.0736 72.5772L29.2031 72.5063L29.1611 72.4297H29.0736V72.5772ZM30.3944 74.9883V75.1359H30.6436L30.5239 74.9174L30.3944 74.9883ZM29.6397 74.9883L29.5098 75.0583L29.5516 75.1359H29.6397V74.9883ZM28.3398 72.5772V72.4297H28.0926L28.2099 72.6473L28.3398 72.5772ZM26.5473 74.9883H26.6949V69.6211H26.5473H26.3997V74.9883H26.5473ZM26.5473 69.6211V69.7687H28.3608V69.6211V69.4735H26.5473V69.6211ZM28.3608 69.6211V69.7687C28.7645 69.7687 29.0828 69.8379 29.324 69.9663L29.3933 69.836L29.4627 69.7057C29.1658 69.5476 28.7957 69.4735 28.3608 69.4735V69.6211ZM29.3933 69.836L29.3246 69.9666C29.5695 70.0954 29.7458 70.2695 29.86 70.4886L29.9909 70.4204L30.1217 70.3522C29.9774 70.0751 29.7553 69.8596 29.462 69.7054L29.3933 69.836ZM29.9909 70.4204L29.86 70.4886C29.9769 70.7131 30.0372 70.9713 30.0372 71.2669H30.1848H30.3324C30.3324 70.9301 30.2634 70.624 30.1217 70.3522L29.9909 70.4204ZM30.1848 71.2669H30.0372C30.0372 71.5626 29.9769 71.8187 29.8604 72.0392L29.9909 72.1081L30.1213 72.1771C30.2634 71.9084 30.3324 71.6037 30.3324 71.2669H30.1848ZM29.9909 72.1081L29.8604 72.0392C29.7463 72.255 29.5709 72.4267 29.3276 72.5539L29.396 72.6847L29.4643 72.8155C29.7556 72.6632 29.9768 72.4505 30.1213 72.1771L29.9909 72.1081ZM29.396 72.6847L29.3282 72.5535C29.0883 72.6774 28.772 72.7441 28.3713 72.7441V72.8917V73.0393C28.8021 73.0393 29.169 72.968 29.4637 72.8158L29.396 72.6847ZM28.3713 72.8917V72.7441H26.9037V72.8917V73.0393H28.3713V72.8917ZM26.9037 72.8917H27.0513V72.3047H26.9037H26.7561V72.8917H26.9037ZM26.9037 72.3047V72.4523H28.3503V72.3047V72.1571H26.9037V72.3047ZM28.3503 72.3047V72.4523C28.6492 72.4523 28.9042 72.4089 29.106 72.312L29.0422 72.1789L28.9783 72.0458C28.8307 72.1167 28.6244 72.1571 28.3503 72.1571V72.3047ZM29.0422 72.1789L29.1055 72.3122C29.3073 72.2163 29.4609 72.0761 29.5562 71.8897L29.4248 71.8225L29.2934 71.7553C29.2315 71.8764 29.13 71.9738 28.9788 72.0456L29.0422 72.1789ZM29.4248 71.8225L29.5559 71.8903C29.6493 71.7096 29.6929 71.5001 29.6929 71.2669H29.5453H29.3977C29.3977 71.4635 29.361 71.6244 29.2937 71.7547L29.4248 71.8225ZM29.5453 71.2669H29.6929C29.6929 71.0335 29.6492 70.8223 29.5568 70.6374L29.4248 70.7035L29.2928 70.7695C29.3611 70.9061 29.3977 71.0705 29.3977 71.2669H29.5453ZM29.4248 70.7035L29.5568 70.6374C29.4607 70.4452 29.3074 70.2992 29.105 70.199L29.0395 70.3313L28.9741 70.4636C29.1246 70.5381 29.2282 70.6402 29.2928 70.7695L29.4248 70.7035ZM29.0395 70.3313L29.1061 70.1996C28.9016 70.0963 28.643 70.0501 28.3398 70.0501V70.1977V70.3453C28.6167 70.3453 28.8246 70.3881 28.973 70.4631L29.0395 70.3313ZM28.3398 70.1977V70.0501H27.1972V70.1977V70.3453H28.3398V70.1977ZM27.1972 70.1977H27.0496V74.9883H27.1972H27.3448V70.1977H27.1972ZM27.1972 74.9883V74.8407H26.5473V74.9883V75.1359H27.1972V74.9883ZM29.0736 72.5772L28.9442 72.6482L30.265 75.0592L30.3944 74.9883L30.5239 74.9174L29.2031 72.5063L29.0736 72.5772ZM30.3944 74.9883V74.8407H29.6397V74.9883V75.1359H30.3944V74.9883ZM29.6397 74.9883L29.7696 74.9182L28.4697 72.5072L28.3398 72.5772L28.2099 72.6473L29.5098 75.0583L29.6397 74.9883ZM28.3398 72.5772V72.7248H29.0736V72.5772V72.4297H28.3398V72.5772ZM31.2678 74.9883H31.1202V75.1359H31.2678V74.9883ZM31.2678 69.6211V69.4735H31.1202V69.6211H31.2678ZM34.507 69.6211H34.6546V69.4735H34.507V69.6211ZM34.507 70.1977V70.3453H34.6546V70.1977H34.507ZM31.9177 70.1977V70.0501H31.7701V70.1977H31.9177ZM31.9177 72.0112H31.7701V72.1588H31.9177V72.0112ZM34.3392 72.0112H34.4868V71.8636H34.3392V72.0112ZM34.3392 72.5877V72.7353H34.4868V72.5877H34.3392ZM31.9177 72.5877V72.4401H31.7701V72.5877H31.9177ZM31.9177 74.4117H31.7701V74.5593H31.9177V74.4117ZM34.5489 74.4117H34.6965V74.2641H34.5489V74.4117ZM34.5489 74.9883V75.1359H34.6965V74.9883H34.5489ZM31.2678 74.9883H31.4154V69.6211H31.2678H31.1202V74.9883H31.2678ZM31.2678 69.6211V69.7687H34.507V69.6211V69.4735H31.2678V69.6211ZM34.507 69.6211H34.3594V70.1977H34.507H34.6546V69.6211H34.507ZM34.507 70.1977V70.0501H31.9177V70.1977V70.3453H34.507V70.1977ZM31.9177 70.1977H31.7701V72.0112H31.9177H32.0653V70.1977H31.9177ZM31.9177 72.0112V72.1588H34.3392V72.0112V71.8636H31.9177V72.0112ZM34.3392 72.0112H34.1916V72.5877H34.3392H34.4868V72.0112H34.3392ZM34.3392 72.5877V72.4401H31.9177V72.5877V72.7353H34.3392V72.5877ZM31.9177 72.5877H31.7701V74.4117H31.9177H32.0653V72.5877H31.9177ZM31.9177 74.4117V74.5593H34.5489V74.4117V74.2641H31.9177V74.4117ZM34.5489 74.4117H34.4013V74.9883H34.5489H34.6965V74.4117H34.5489ZM34.5489 74.9883V74.8407H31.2678V74.9883V75.1359H34.5489V74.9883ZM35.6784 69.6211V69.4735H35.5308V69.6211H35.6784ZM36.4541 69.6211L36.5907 69.5652L36.5532 69.4735H36.4541V69.6211ZM38.2781 74.0763L38.1415 74.1322L38.1791 74.2239H38.2781V74.0763ZM38.341 74.0763V74.2239H38.4401L38.4776 74.1322L38.341 74.0763ZM40.165 69.6211V69.4735H40.066L40.0284 69.5652L40.165 69.6211ZM40.9407 69.6211H41.0883V69.4735H40.9407V69.6211ZM40.9407 74.9883V75.1359H41.0883V74.9883H40.9407ZM40.3327 74.9883H40.1852V75.1359H40.3327V74.9883ZM40.3327 70.9105H40.4803V70.7629H40.3327V70.9105ZM40.2803 70.9105V70.7629H40.1814L40.1438 70.8543L40.2803 70.9105ZM38.6031 74.9883V75.1359H38.702L38.7396 75.0444L38.6031 74.9883ZM38.0161 74.9883L37.8796 75.0444L37.9172 75.1359H38.0161V74.9883ZM36.3388 70.9105L36.4753 70.8543L36.4377 70.7629H36.3388V70.9105ZM36.2864 70.9105V70.7629H36.1388V70.9105H36.2864ZM36.2864 74.9883V75.1359H36.434V74.9883H36.2864ZM35.6784 74.9883H35.5308V75.1359H35.6784V74.9883ZM35.6784 69.6211V69.7687H36.4541V69.6211V69.4735H35.6784V69.6211ZM36.4541 69.6211L36.3175 69.677L38.1415 74.1322L38.2781 74.0763L38.4147 74.0204L36.5907 69.5652L36.4541 69.6211ZM38.2781 74.0763V74.2239H38.341V74.0763V73.9287H38.2781V74.0763ZM38.341 74.0763L38.4776 74.1322L40.3016 69.677L40.165 69.6211L40.0284 69.5652L38.2044 74.0204L38.341 74.0763ZM40.165 69.6211V69.7687H40.9407V69.6211V69.4735H40.165V69.6211ZM40.9407 69.6211H40.7932V74.9883H40.9407H41.0883V69.6211H40.9407ZM40.9407 74.9883V74.8407H40.3327V74.9883V75.1359H40.9407V74.9883ZM40.3327 74.9883H40.4803V70.9105H40.3327H40.1852V74.9883H40.3327ZM40.3327 70.9105V70.7629H40.2803V70.9105V71.0581H40.3327V70.9105ZM40.2803 70.9105L40.1438 70.8543L38.4666 74.9321L38.6031 74.9883L38.7396 75.0444L40.4168 70.9666L40.2803 70.9105ZM38.6031 74.9883V74.8407H38.0161V74.9883V75.1359H38.6031V74.9883ZM38.0161 74.9883L38.1526 74.9321L36.4753 70.8543L36.3388 70.9105L36.2023 70.9666L37.8796 75.0444L38.0161 74.9883ZM36.3388 70.9105V70.7629H36.2864V70.9105V71.0581H36.3388V70.9105ZM36.2864 70.9105H36.1388V74.9883H36.2864H36.434V70.9105H36.2864ZM36.2864 74.9883V74.8407H35.6784V74.9883V75.1359H36.2864V74.9883ZM35.6784 74.9883H35.826V69.6211H35.6784H35.5308V74.9883H35.6784ZM42.464 74.9883V75.1359H42.5683L42.6031 75.0377L42.464 74.9883ZM41.7826 74.9883L41.6441 74.9374L41.5712 75.1359H41.7826V74.9883ZM43.7534 69.6211V69.4735H43.6504L43.6149 69.5702L43.7534 69.6211ZM44.4243 69.6211L44.5629 69.5702L44.5273 69.4735H44.4243V69.6211ZM46.3951 74.9883V75.1359H46.6065L46.5336 74.9374L46.3951 74.9883ZM45.7137 74.9883L45.5746 75.0377L45.6095 75.1359H45.7137V74.9883ZM44.1098 70.4702L44.2489 70.4208L44.214 70.3226H44.1098V70.4702ZM44.0679 70.4702V70.3226H43.9637L43.9288 70.4208L44.0679 70.4702ZM42.7156 72.8917V72.7441H42.568V72.8917H42.7156ZM45.4621 72.8917H45.6097V72.7441H45.4621V72.8917ZM45.4621 73.4683V73.6159H45.6097V73.4683H45.4621ZM42.7156 73.4683H42.568V73.6159H42.7156V73.4683ZM42.464 74.9883V74.8407H41.7826V74.9883V75.1359H42.464V74.9883ZM41.7826 74.9883L41.9212 75.0392L43.892 69.672L43.7534 69.6211L43.6149 69.5702L41.6441 74.9374L41.7826 74.9883ZM43.7534 69.6211V69.7687H44.4243V69.6211V69.4735H43.7534V69.6211ZM44.4243 69.6211L44.2857 69.672L46.2565 75.0392L46.3951 74.9883L46.5336 74.9374L44.5629 69.5702L44.4243 69.6211ZM46.3951 74.9883V74.8407H45.7137V74.9883V75.1359H46.3951V74.9883ZM45.7137 74.9883L45.8528 74.9389L44.2489 70.4208L44.1098 70.4702L43.9707 70.5196L45.5746 75.0377L45.7137 74.9883ZM44.1098 70.4702V70.3226H44.0679V70.4702V70.6178H44.1098V70.4702ZM44.0679 70.4702L43.9288 70.4208L42.3249 74.9389L42.464 74.9883L42.6031 75.0377L44.207 70.5196L44.0679 70.4702ZM42.7156 72.8917V73.0393H45.4621V72.8917V72.7441H42.7156V72.8917ZM45.4621 72.8917H45.3145V73.4683H45.4621H45.6097V72.8917H45.4621ZM45.4621 73.4683V73.3207H42.7156V73.4683V73.6159H45.4621V73.4683ZM42.7156 73.4683H42.8632V72.8917H42.7156H42.568V73.4683H42.7156ZM50.1662 70.9629L50.0197 70.9803L50.0351 71.1105H50.1662V70.9629ZM49.7836 70.3444L49.7026 70.4678L49.7026 70.4678L49.7836 70.3444ZM48.337 70.2396L48.2785 70.1041L48.278 70.1043L48.337 70.2396ZM47.9229 70.5567L47.8043 70.4689L47.8036 70.4699L47.9229 70.5567ZM47.8784 71.3848L47.7552 71.4662L47.7569 71.4686L47.8784 71.3848ZM48.1457 71.639L48.0671 71.764L48.0685 71.7649L48.1457 71.639ZM48.4864 71.8041L48.4354 71.9427L48.4372 71.9433L48.4864 71.8041ZM48.814 71.9064L48.8523 71.7638L48.8515 71.7636L48.814 71.9064ZM49.3591 72.0531L49.3207 72.1956L49.3216 72.1959L49.3591 72.0531ZM49.8255 72.2051L49.7734 72.3432L49.7739 72.3434L49.8255 72.2051ZM50.3209 72.4698L50.2353 72.5901L50.2368 72.5912L50.3209 72.4698ZM50.714 72.8944L50.8407 72.8188L50.8407 72.8188L50.714 72.8944ZM50.6406 74.3174L50.5168 74.237L50.5164 74.2377L50.6406 74.3174ZM49.9802 74.8756L49.9167 74.7423L49.9164 74.7425L49.9802 74.8756ZM47.9308 74.8966L47.8709 75.0315L47.8712 75.0316L47.9308 74.8966ZM47.2704 74.3777L47.1504 74.4636L47.1508 74.4642L47.2704 74.3777ZM47.0004 73.6046V73.457H46.8419L46.8532 73.6151L47.0004 73.6046ZM47.6713 73.6046L47.8184 73.5919L47.8068 73.457H47.6713V73.6046ZM47.8757 74.1077L47.7657 74.2062L47.7671 74.2077L47.8757 74.1077ZM48.3317 74.4012L48.2827 74.5405L48.2843 74.541L48.3317 74.4012ZM49.5975 74.375L49.6532 74.5117L49.6542 74.5113L49.5975 74.375ZM50.0666 74.0344L50.1822 74.1262L50.1827 74.1255L50.0666 74.0344ZM50.0902 73.0857L50.2005 72.9875L50.2005 72.9875L50.0902 73.0857ZM49.6971 72.8131L49.6388 72.9487L49.6388 72.9487L49.6971 72.8131ZM49.1704 72.6297L49.1298 72.7716L49.1309 72.7719L49.1704 72.6297ZM48.51 72.441L48.4692 72.5828L48.4694 72.5829L48.51 72.441ZM47.5141 71.9247L47.4145 72.0336L47.4145 72.0336L47.5141 71.9247ZM47.3909 70.2606L47.2716 70.1736L47.2715 70.1738L47.3909 70.2606ZM48.0513 69.7364L48.1118 69.8711L48.1122 69.8709L48.0513 69.7364ZM49.9042 69.7338L49.8424 69.8678L49.8431 69.8682L49.9042 69.7338ZM50.5436 70.237L50.4248 70.3246L50.4253 70.3252L50.5436 70.237ZM50.7952 70.9629V71.1105H50.9476L50.9427 70.9581L50.7952 70.9629ZM50.1662 70.9629L50.3128 70.9455C50.2762 70.6367 50.1247 70.3917 49.8646 70.221L49.7836 70.3444L49.7026 70.4678C49.8898 70.5907 49.9933 70.758 50.0197 70.9803L50.1662 70.9629ZM49.7836 70.3444L49.8646 70.221C49.6122 70.0554 49.3082 69.9767 48.9607 69.9767V70.1243V70.2719C49.2631 70.2719 49.5078 70.34 49.7026 70.4678L49.7836 70.3444ZM48.9607 70.1243V69.9767C48.7074 69.9767 48.4788 70.0177 48.2785 70.1041L48.337 70.2396L48.3955 70.3751C48.5515 70.3078 48.7388 70.2719 48.9607 70.2719V70.1243ZM48.337 70.2396L48.278 70.1043C48.0815 70.1899 47.9214 70.3106 47.8043 70.4689L47.9229 70.5567L48.0415 70.6445C48.1236 70.5337 48.2396 70.443 48.3959 70.3749L48.337 70.2396ZM47.9229 70.5567L47.8036 70.4699C47.6868 70.6304 47.6286 70.8139 47.6286 71.0153H47.7762H47.9238C47.9238 70.8743 47.9634 70.752 48.0423 70.6435L47.9229 70.5567ZM47.7762 71.0153H47.6286C47.6286 71.1828 47.6687 71.3353 47.7552 71.4662L47.8784 71.3848L48.0015 71.3034C47.9517 71.2282 47.9238 71.1344 47.9238 71.0153H47.7762ZM47.8784 71.3848L47.7569 71.4686C47.8386 71.5871 47.9425 71.6856 48.0671 71.764L48.1457 71.639L48.2243 71.5141C48.1322 71.4562 48.0579 71.3852 47.9999 71.301L47.8784 71.3848ZM48.1457 71.639L48.0685 71.7649C48.1851 71.8363 48.3075 71.8956 48.4354 71.9427L48.4864 71.8041L48.5373 71.6656C48.4277 71.6253 48.3229 71.5745 48.2228 71.5132L48.1457 71.639ZM48.4864 71.8041L48.4372 71.9433C48.559 71.9863 48.6722 72.0217 48.7764 72.0491L48.814 71.9064L48.8515 71.7636C48.7566 71.7386 48.6513 71.7058 48.5355 71.665L48.4864 71.8041ZM48.814 71.9064L48.7756 72.0489L49.3207 72.1956L49.3591 72.0531L49.3974 71.9106L48.8523 71.7638L48.814 71.9064ZM49.3591 72.0531L49.3216 72.1959C49.4553 72.231 49.6058 72.2799 49.7734 72.3432L49.8255 72.2051L49.8777 72.067C49.7029 72.001 49.5424 71.9486 49.3965 71.9103L49.3591 72.0531ZM49.8255 72.2051L49.7739 72.3434C49.9343 72.4033 50.0881 72.4854 50.2353 72.5901L50.3209 72.4698L50.4064 72.3495C50.2392 72.2306 50.0627 72.1362 49.8772 72.0669L49.8255 72.2051ZM50.3209 72.4698L50.2368 72.5912C50.3777 72.6887 50.4944 72.8143 50.5872 72.9699L50.714 72.8944L50.8407 72.8188C50.7273 72.6284 50.5819 72.471 50.4049 72.3484L50.3209 72.4698ZM50.714 72.8944L50.5872 72.9699C50.6736 73.115 50.721 73.2996 50.721 73.5312H50.8686H51.0162C51.0162 73.2596 50.9605 73.0197 50.8407 72.8188L50.714 72.8944ZM50.8686 73.5312H50.721C50.721 73.7938 50.6526 74.0278 50.5168 74.237L50.6406 74.3174L50.7644 74.3978C50.9325 74.1387 51.0162 73.8486 51.0162 73.5312H50.8686ZM50.6406 74.3174L50.5164 74.2377C50.3832 74.4452 50.1858 74.6143 49.9167 74.7423L49.9802 74.8756L50.0436 75.0089C50.3546 74.8609 50.5975 74.6578 50.7648 74.3971L50.6406 74.3174ZM49.9802 74.8756L49.9164 74.7425C49.6529 74.8686 49.3257 74.935 48.9293 74.935V75.0826V75.2302C49.3575 75.2302 49.7308 75.1586 50.0439 75.0087L49.9802 74.8756ZM48.9293 75.0826V74.935C48.5604 74.935 48.2488 74.8755 47.9903 74.7615L47.9308 74.8966L47.8712 75.0316C48.1753 75.1657 48.5294 75.2302 48.9293 75.2302V75.0826ZM47.9308 74.8966L47.9906 74.7616C47.7321 74.6469 47.5336 74.4895 47.3899 74.2911L47.2704 74.3777L47.1508 74.4642C47.3286 74.7096 47.5704 74.8981 47.8709 75.0315L47.9308 74.8966ZM47.2704 74.3777L47.3903 74.2917C47.2485 74.0937 47.1668 73.8626 47.1477 73.594L47.0004 73.6046L46.8532 73.6151C46.876 73.9336 46.9743 74.2179 47.1504 74.4636L47.2704 74.3777ZM47.0004 73.6046V73.7522H47.6713V73.6046V73.457H47.0004V73.6046ZM47.6713 73.6046L47.5243 73.6172C47.5441 73.847 47.6227 74.0463 47.7658 74.2061L47.8757 74.1077L47.9857 74.0093C47.8912 73.9036 47.8335 73.7674 47.8184 73.5919L47.6713 73.6046ZM47.8757 74.1077L47.7671 74.2077C47.9055 74.3581 48.0786 74.4685 48.2827 74.5405L48.3317 74.4012L48.3808 74.262C48.218 74.2047 48.0871 74.1195 47.9844 74.0078L47.8757 74.1077ZM48.3317 74.4012L48.2843 74.541C48.4861 74.6095 48.7014 74.6432 48.9293 74.6432V74.4956V74.348C48.7308 74.348 48.5478 74.3187 48.3792 74.2615L48.3317 74.4012ZM48.9293 74.4956V74.6432C49.1934 74.6432 49.4354 74.6004 49.6532 74.5117L49.5975 74.375L49.5419 74.2383C49.3648 74.3104 49.1614 74.348 48.9293 74.348V74.4956ZM49.5975 74.375L49.6542 74.5113C49.8711 74.4211 50.0491 74.2936 50.1822 74.1262L50.0666 74.0344L49.9511 73.9425C49.8536 74.0651 49.7188 74.1647 49.5409 74.2388L49.5975 74.375ZM50.0666 74.0344L50.1827 74.1255C50.3195 73.9515 50.3872 73.7477 50.3872 73.5207H50.2396H50.092C50.092 73.685 50.0444 73.8237 49.9506 73.9432L50.0666 74.0344ZM50.2396 73.5207H50.3872C50.3872 73.3136 50.3285 73.1313 50.2005 72.9875L50.0902 73.0857L49.98 73.1838C50.0511 73.2636 50.092 73.3714 50.092 73.5207H50.2396ZM50.0902 73.0857L50.2005 72.9875C50.0841 72.8569 49.9342 72.7544 49.7554 72.6775L49.6971 72.8131L49.6388 72.9487C49.785 73.0116 49.8972 73.0908 49.98 73.1838L50.0902 73.0857ZM49.6971 72.8131L49.7554 72.6775C49.5862 72.6047 49.4043 72.5415 49.2099 72.4874L49.1704 72.6297L49.1309 72.7719C49.3138 72.8227 49.483 72.8817 49.6388 72.9487L49.6971 72.8131ZM49.1704 72.6297L49.2109 72.4877L48.5505 72.2991L48.51 72.441L48.4694 72.5829L49.1298 72.7716L49.1704 72.6297ZM48.51 72.441L48.5507 72.2991C48.1467 72.1829 47.837 72.02 47.6137 71.8158L47.5141 71.9247L47.4145 72.0336C47.6803 72.2767 48.0346 72.4579 48.4692 72.5828L48.51 72.441ZM47.5141 71.9247L47.6137 71.8158C47.4027 71.6228 47.2948 71.3712 47.2948 71.0468H47.1472H46.9996C46.9996 71.4456 47.1363 71.7793 47.4145 72.0336L47.5141 71.9247ZM47.1472 71.0468H47.2948C47.2948 70.7746 47.3678 70.5435 47.5103 70.3473L47.3909 70.2606L47.2715 70.1738C47.0891 70.4249 46.9996 70.718 46.9996 71.0468H47.1472ZM47.3909 70.2606L47.5102 70.3475C47.658 70.1446 47.8571 69.9855 48.1118 69.871L48.0513 69.7364L47.9908 69.6018C47.6934 69.7354 47.4523 69.9258 47.2716 70.1736L47.3909 70.2606ZM48.0513 69.7364L48.1122 69.8709C48.3687 69.7548 48.6577 69.6953 48.9817 69.6953V69.5477V69.4001C48.6208 69.4001 48.2896 69.4665 47.9904 69.602L48.0513 69.7364ZM48.9817 69.5477V69.6953C49.3098 69.6953 49.5957 69.7541 49.8424 69.8678L49.9042 69.7338L49.966 69.5998C49.6745 69.4654 49.3454 69.4001 48.9817 69.4001V69.5477ZM49.9042 69.7338L49.8431 69.8682C50.0919 69.9813 50.2842 70.134 50.4248 70.3246L50.5436 70.237L50.6624 70.1494C50.4885 69.9137 50.2545 69.7309 49.9652 69.5994L49.9042 69.7338ZM50.5436 70.237L50.4253 70.3252C50.5659 70.5137 50.6399 70.7264 50.6477 70.9677L50.7952 70.9629L50.9427 70.9581C50.933 70.6578 50.8393 70.3865 50.6619 70.1487L50.5436 70.237ZM50.7952 70.9629V70.8153H50.1662V70.9629V71.1105H50.7952V70.9629ZM51.6436 70.1977H51.496V70.3453H51.6436V70.1977ZM51.6436 69.6211V69.4735H51.496V69.6211H51.6436ZM55.669 69.6211H55.8166V69.4735H55.669V69.6211ZM55.669 70.1977V70.3453H55.8166V70.1977H55.669ZM53.9813 70.1977V70.0501H53.8337V70.1977H53.9813ZM53.9813 74.9883V75.1359H54.1289V74.9883H53.9813ZM53.3314 74.9883H53.1838V75.1359H53.3314V74.9883ZM53.3314 70.1977H53.479V70.0501H53.3314V70.1977ZM51.6436 70.1977H51.7912V69.6211H51.6436H51.496V70.1977H51.6436ZM51.6436 69.6211V69.7687H55.669V69.6211V69.4735H51.6436V69.6211ZM55.669 69.6211H55.5214V70.1977H55.669H55.8166V69.6211H55.669ZM55.669 70.1977V70.0501H53.9813V70.1977V70.3453H55.669V70.1977ZM53.9813 70.1977H53.8337V74.9883H53.9813H54.1289V70.1977H53.9813ZM53.9813 74.9883V74.8407H53.3314V74.9883V75.1359H53.9813V74.9883ZM53.3314 74.9883H53.479V70.1977H53.3314H53.1838V74.9883H53.3314ZM53.3314 70.1977V70.0501H51.6436V70.1977V70.3453H53.3314V70.1977ZM56.6721 74.9883H56.5245V75.1359H56.6721V74.9883ZM56.6721 69.6211V69.4735H56.5245V69.6211H56.6721ZM59.9113 69.6211H60.0589V69.4735H59.9113V69.6211ZM59.9113 70.1977V70.3453H60.0589V70.1977H59.9113ZM57.322 70.1977V70.0501H57.1744V70.1977H57.322ZM57.322 72.0112H57.1744V72.1588H57.322V72.0112ZM59.7435 72.0112H59.8911V71.8636H59.7435V72.0112ZM59.7435 72.5877V72.7353H59.8911V72.5877H59.7435ZM57.322 72.5877V72.4401H57.1744V72.5877H57.322ZM57.322 74.4117H57.1744V74.5593H57.322V74.4117ZM59.9532 74.4117H60.1008V74.2641H59.9532V74.4117ZM59.9532 74.9883V75.1359H60.1008V74.9883H59.9532ZM56.6721 74.9883H56.8197V69.6211H56.6721H56.5245V74.9883H56.6721ZM56.6721 69.6211V69.7687H59.9113V69.6211V69.4735H56.6721V69.6211ZM59.9113 69.6211H59.7637V70.1977H59.9113H60.0589V69.6211H59.9113ZM59.9113 70.1977V70.0501H57.322V70.1977V70.3453H59.9113V70.1977ZM57.322 70.1977H57.1744V72.0112H57.322H57.4696V70.1977H57.322ZM57.322 72.0112V72.1588H59.7435V72.0112V71.8636H57.322V72.0112ZM59.7435 72.0112H59.5959V72.5877H59.7435H59.8911V72.0112H59.7435ZM59.7435 72.5877V72.4401H57.322V72.5877V72.7353H59.7435V72.5877ZM57.322 72.5877H57.1744V74.4117H57.322H57.4696V72.5877H57.322ZM57.322 74.4117V74.5593H59.9532V74.4117V74.2641H57.322V74.4117ZM59.9532 74.4117H59.8056V74.9883H59.9532H60.1008V74.4117H59.9532ZM59.9532 74.9883V74.8407H56.6721V74.9883V75.1359H59.9532V74.9883ZM61.0827 74.9883H60.9351V75.1359H61.0827V74.9883ZM61.0827 69.6211V69.4735H60.9351V69.6211H61.0827ZM63.9288 69.836L63.8594 69.9663L63.8601 69.9666L63.9288 69.836ZM64.5263 70.4204L64.3954 70.4886L64.3954 70.4886L64.5263 70.4204ZM64.5263 72.1081L64.3958 72.0392L64.3958 72.0392L64.5263 72.1081ZM63.9314 72.6847L63.9991 72.8158L63.9998 72.8155L63.9314 72.6847ZM61.4391 72.8917H61.2915V73.0393H61.4391V72.8917ZM61.4391 72.3047V72.1571H61.2915V72.3047H61.4391ZM63.5776 72.1789L63.5142 72.0456L63.5137 72.0458L63.5776 72.1789ZM63.9602 71.8225L63.8291 71.7547L63.8288 71.7553L63.9602 71.8225ZM63.575 70.3313L63.5085 70.4631L63.5095 70.4636L63.575 70.3313ZM61.7326 70.1977V70.0501H61.585V70.1977H61.7326ZM61.7326 74.9883V75.1359H61.8802V74.9883H61.7326ZM63.6091 72.5772L63.7385 72.5063L63.6965 72.4297H63.6091V72.5772ZM64.9299 74.9883V75.1359H65.179L65.0593 74.9174L64.9299 74.9883ZM64.1751 74.9883L64.0452 75.0583L64.087 75.1359H64.1751V74.9883ZM62.8753 72.5772V72.4297H62.628L62.7453 72.6473L62.8753 72.5772ZM61.0827 74.9883H61.2303V69.6211H61.0827H60.9351V74.9883H61.0827ZM61.0827 69.6211V69.7687H62.8962V69.6211V69.4735H61.0827V69.6211ZM62.8962 69.6211V69.7687C63.3 69.7687 63.6182 69.8379 63.8594 69.9663L63.9288 69.836L63.9981 69.7057C63.7012 69.5476 63.3311 69.4735 62.8962 69.4735V69.6211ZM63.9288 69.836L63.8601 69.9666C64.1049 70.0954 64.2812 70.2695 64.3954 70.4886L64.5263 70.4204L64.6572 70.3522C64.5128 70.0751 64.2907 69.8596 63.9975 69.7054L63.9288 69.836ZM64.5263 70.4204L64.3954 70.4886C64.5124 70.7131 64.5726 70.9713 64.5726 71.2669H64.7202H64.8678C64.8678 70.9301 64.7988 70.624 64.6572 70.3522L64.5263 70.4204ZM64.7202 71.2669H64.5726C64.5726 71.5626 64.5123 71.8187 64.3958 72.0392L64.5263 72.1081L64.6568 72.1771C64.7988 71.9084 64.8678 71.6037 64.8678 71.2669H64.7202ZM64.5263 72.1081L64.3958 72.0392C64.2817 72.255 64.1063 72.4267 63.863 72.5539L63.9314 72.6847L63.9998 72.8155C64.2911 72.6632 64.5123 72.4505 64.6568 72.1771L64.5263 72.1081ZM63.9314 72.6847L63.8637 72.5535C63.6238 72.6774 63.3075 72.7441 62.9067 72.7441V72.8917V73.0393C63.3376 73.0393 63.7044 72.968 63.9991 72.8158L63.9314 72.6847ZM62.9067 72.8917V72.7441H61.4391V72.8917V73.0393H62.9067V72.8917ZM61.4391 72.8917H61.5867V72.3047H61.4391H61.2915V72.8917H61.4391ZM61.4391 72.3047V72.4523H62.8857V72.3047V72.1571H61.4391V72.3047ZM62.8857 72.3047V72.4523C63.1847 72.4523 63.4396 72.4089 63.6415 72.312L63.5776 72.1789L63.5137 72.0458C63.3662 72.1167 63.1599 72.1571 62.8857 72.1571V72.3047ZM63.5776 72.1789L63.641 72.3122C63.8427 72.2163 63.9963 72.0761 64.0916 71.8897L63.9602 71.8225L63.8288 71.7553C63.7669 71.8764 63.6654 71.9738 63.5142 72.0456L63.5776 72.1789ZM63.9602 71.8225L64.0913 71.8903C64.1847 71.7096 64.2284 71.5001 64.2284 71.2669H64.0808H63.9332C63.9332 71.4635 63.8965 71.6244 63.8291 71.7547L63.9602 71.8225ZM64.0808 71.2669H64.2284C64.2284 71.0335 64.1847 70.8223 64.0922 70.6374L63.9602 70.7035L63.8282 70.7695C63.8965 70.9061 63.9332 71.0705 63.9332 71.2669H64.0808ZM63.9602 70.7035L64.0922 70.6374C63.9961 70.4452 63.8428 70.2992 63.6405 70.199L63.575 70.3313L63.5095 70.4636C63.6601 70.5381 63.7636 70.6402 63.8282 70.7695L63.9602 70.7035ZM63.575 70.3313L63.6415 70.1996C63.4371 70.0963 63.1784 70.0501 62.8753 70.0501V70.1977V70.3453C63.1521 70.3453 63.36 70.3881 63.5085 70.4631L63.575 70.3313ZM62.8753 70.1977V70.0501H61.7326V70.1977V70.3453H62.8753V70.1977ZM61.7326 70.1977H61.585V74.9883H61.7326H61.8802V70.1977H61.7326ZM61.7326 74.9883V74.8407H61.0827V74.9883V75.1359H61.7326V74.9883ZM63.6091 72.5772L63.4796 72.6482L64.8004 75.0592L64.9299 74.9883L65.0593 74.9174L63.7385 72.5063L63.6091 72.5772ZM64.9299 74.9883V74.8407H64.1751V74.9883V75.1359H64.9299V74.9883ZM64.1751 74.9883L64.305 74.9182L63.0052 72.5072L62.8753 72.5772L62.7453 72.6473L64.0452 75.0583L64.1751 74.9883ZM62.8753 72.5772V72.7248H63.6091V72.5772V72.4297H62.8753V72.5772Z" fill="#2449C2" mask="url(#path-11-outside-1_28_68)"/>
</svg>
